<?xml version="1.0" standalone="no"?>
<!DOCTYPE svg PUBLIC "-//W3C//DTD SVG 20010904//EN"
 "http://www.w3.org/TR/2001/REC-SVG-20010904/DTD/svg10.dtd">
<svg version="1.0" xmlns="http://www.w3.org/2000/svg"
 width="700.000000pt" height="700.000000pt" viewBox="0 0 700.000000 700.000000"
 preserveAspectRatio="xMidYMid meet">
<metadata>
Created by potrace 1.14, written by Peter Selinger 2001-2017
</metadata>
<g transform="translate(0.000000,700.000000) scale(0.100000,-0.100000)"
fill="#000000" stroke="none">
<path d="M1590 6122 c-158 -18 -307 -57 -427 -112 -204 -94 -405 -269 -526
-458 -431 -675 -129 -1575 622 -1852 68 -25 258 -72 278 -69 5 1 21 1 36 0 29
-1 29 -1 10 -25 -86 -112 -163 -216 -179 -241 -10 -16 -21 -32 -24 -35 -30
-26 -198 -313 -271 -460 -183 -372 -248 -661 -217 -970 53 -523 406 -1021 908
-1278 171 -88 324 -140 469 -160 101 -13 534 -3 561 13 3 1 28 6 55 9 101 14
234 50 378 103 173 64 181 66 267 65 67 0 83 -5 310 -100 52 -21 129 -47 170
-57 141 -32 177 -36 340 -40 221 -5 411 27 634 106 421 150 763 429 955 782
53 96 119 275 136 367 2 14 9 49 14 77 68 353 -4 712 -231 1168 -97 194 -210
377 -373 603 -25 34 -45 65 -45 67 0 2 21 7 48 10 55 8 198 42 227 54 11 5 51
21 88 36 238 96 455 290 595 530 104 178 166 416 164 625 -1 68 -9 172 -17
210 -54 269 -165 480 -350 665 -107 108 -189 168 -319 234 -86 43 -218 92
-286 105 -14 3 -36 7 -50 10 -87 19 -268 26 -370 13 -436 -52 -823 -333 -996
-723 -81 -182 -109 -321 -109 -536 0 -149 -1 -165 -15 -158 -15 8 -190 55
-240 65 -108 21 -380 28 -490 12 -79 -11 -251 -54 -327 -83 -36 -14 -67 -23
-68 -22 -2 2 1 23 5 48 9 47 7 331 -3 346 -3 5 -8 27 -11 49 -11 70 -57 207
-98 293 -207 437 -634 708 -1123 716 -44 1 -91 0 -105 -2z"/>
</g>
</svg>
